<mxfile host="Electron" agent="Mozilla/5.0 (Windows NT 10.0; Win64; x64) AppleWebKit/537.36 (KHTML, like Gecko) draw.io/24.7.17 Chrome/128.0.6613.36 Electron/32.0.1 Safari/537.36" version="24.7.17">
  <diagram name="PÃ¡gina-1" id="mdZBjKnsUl-zOqaxmwN8">
    <mxGraphModel dx="733" dy="443" grid="1" gridSize="10" guides="1" tooltips="1" connect="1" arrows="1" fold="1" page="1" pageScale="1" pageWidth="827" pageHeight="1169" math="0" shadow="0">
      <root>
        <mxCell id="0" />
        <mxCell id="1" parent="0" />
        <mxCell id="Mtf_iVx3d2QCP4QghA2w-1" value="" style="ellipse;whiteSpace=wrap;html=1;aspect=fixed;" vertex="1" parent="1">
          <mxGeometry x="350" y="60" width="50" height="50" as="geometry" />
        </mxCell>
        <mxCell id="Mtf_iVx3d2QCP4QghA2w-2" value="" style="endArrow=none;html=1;rounded=0;startArrow=classic;startFill=1;" edge="1" parent="1">
          <mxGeometry width="50" height="50" relative="1" as="geometry">
            <mxPoint x="374.76" y="160" as="sourcePoint" />
            <mxPoint x="374.76" y="110" as="targetPoint" />
          </mxGeometry>
        </mxCell>
        <mxCell id="Mtf_iVx3d2QCP4QghA2w-3" value="&lt;h5 style=&quot;font-size: 7px;&quot;&gt;&lt;span style=&quot;font-weight: normal;&quot;&gt;se detecta&lt;br&gt;un vehiculo&lt;br&gt;// Sacar Foto,&lt;br&gt;Iniciar Contador en 1&lt;/span&gt;&lt;/h5&gt;" style="text;html=1;align=center;verticalAlign=middle;resizable=0;points=[];autosize=1;strokeColor=none;fillColor=none;" vertex="1" parent="1">
          <mxGeometry x="387" y="50" width="90" height="70" as="geometry" />
        </mxCell>
        <mxCell id="Mtf_iVx3d2QCP4QghA2w-5" style="edgeStyle=orthogonalEdgeStyle;rounded=0;orthogonalLoop=1;jettySize=auto;html=1;curved=1;" edge="1" parent="1" source="Mtf_iVx3d2QCP4QghA2w-4">
          <mxGeometry relative="1" as="geometry">
            <mxPoint x="437" y="162" as="targetPoint" />
            <Array as="points">
              <mxPoint x="460" y="180" />
              <mxPoint x="460" y="160" />
              <mxPoint x="440" y="160" />
            </Array>
          </mxGeometry>
        </mxCell>
        <mxCell id="Mtf_iVx3d2QCP4QghA2w-13" value="" style="edgeStyle=orthogonalEdgeStyle;rounded=0;orthogonalLoop=1;jettySize=auto;html=1;" edge="1" parent="1" source="Mtf_iVx3d2QCP4QghA2w-4" target="Mtf_iVx3d2QCP4QghA2w-12">
          <mxGeometry relative="1" as="geometry" />
        </mxCell>
        <mxCell id="Mtf_iVx3d2QCP4QghA2w-19" value="" style="edgeStyle=orthogonalEdgeStyle;rounded=0;orthogonalLoop=1;jettySize=auto;html=1;" edge="1" parent="1" source="Mtf_iVx3d2QCP4QghA2w-4" target="Mtf_iVx3d2QCP4QghA2w-18">
          <mxGeometry relative="1" as="geometry">
            <mxPoint x="460" y="170" as="sourcePoint" />
          </mxGeometry>
        </mxCell>
        <mxCell id="Mtf_iVx3d2QCP4QghA2w-4" value="Analizando&lt;div&gt;Contenido&lt;/div&gt;" style="rounded=0;whiteSpace=wrap;html=1;" vertex="1" parent="1">
          <mxGeometry x="315" y="160" width="120" height="60" as="geometry" />
        </mxCell>
        <mxCell id="Mtf_iVx3d2QCP4QghA2w-6" value="&lt;h5 style=&quot;font-size: 7px;&quot;&gt;&lt;span style=&quot;font-weight: normal;&quot;&gt;no se detecta&lt;br&gt;patente&lt;br&gt;[contador fotos menor a 4]&lt;br&gt;//Sacar Foto, Incrementar contador&lt;/span&gt;&lt;/h5&gt;" style="text;html=1;align=center;verticalAlign=middle;resizable=0;points=[];autosize=1;strokeColor=none;fillColor=none;" vertex="1" parent="1">
          <mxGeometry x="450" y="110" width="130" height="70" as="geometry" />
        </mxCell>
        <mxCell id="Mtf_iVx3d2QCP4QghA2w-10" value="&lt;h5 style=&quot;font-size: 7px;&quot;&gt;&lt;span style=&quot;font-weight: normal;&quot;&gt;no se detecta&lt;br&gt;patente&lt;br&gt;[contador fotos igual a 4]&lt;br&gt;//Avisar Empleado&lt;/span&gt;&lt;/h5&gt;" style="text;html=1;align=center;verticalAlign=middle;resizable=0;points=[];autosize=1;strokeColor=none;fillColor=none;" vertex="1" parent="1">
          <mxGeometry x="465" y="180" width="100" height="70" as="geometry" />
        </mxCell>
        <mxCell id="Mtf_iVx3d2QCP4QghA2w-12" value="Esperando&lt;br&gt;Retiro" style="whiteSpace=wrap;html=1;rounded=0;" vertex="1" parent="1">
          <mxGeometry x="315" y="300" width="120" height="60" as="geometry" />
        </mxCell>
        <mxCell id="Mtf_iVx3d2QCP4QghA2w-14" value="&lt;h5 style=&quot;font-size: 7px;&quot;&gt;&lt;span style=&quot;font-weight: normal;&quot;&gt;Se detecta Patente&lt;br&gt;//Registrar Horas Permanencia,&lt;br&gt;Imprimir Ticket, Abrir Barrera&lt;/span&gt;&lt;/h5&gt;" style="text;html=1;align=center;verticalAlign=middle;resizable=0;points=[];autosize=1;strokeColor=none;fillColor=none;" vertex="1" parent="1">
          <mxGeometry x="260" y="220" width="120" height="60" as="geometry" />
        </mxCell>
        <mxCell id="Mtf_iVx3d2QCP4QghA2w-15" value="" style="ellipse;shape=doubleEllipse;whiteSpace=wrap;html=1;aspect=fixed;" vertex="1" parent="1">
          <mxGeometry x="364" y="410" width="50" height="50" as="geometry" />
        </mxCell>
        <mxCell id="Mtf_iVx3d2QCP4QghA2w-16" value="" style="endArrow=classic;html=1;rounded=0;endFill=1;" edge="1" parent="1" source="Mtf_iVx3d2QCP4QghA2w-12" target="Mtf_iVx3d2QCP4QghA2w-15">
          <mxGeometry width="50" height="50" relative="1" as="geometry">
            <mxPoint x="388.86" y="510" as="sourcePoint" />
            <mxPoint x="388.86" y="460" as="targetPoint" />
          </mxGeometry>
        </mxCell>
        <mxCell id="Mtf_iVx3d2QCP4QghA2w-17" value="Se pasa la barrera&lt;div&gt;//Cerrar Barrera&lt;/div&gt;" style="text;html=1;align=center;verticalAlign=middle;resizable=0;points=[];autosize=1;strokeColor=none;fillColor=none;" vertex="1" parent="1">
          <mxGeometry x="388" y="362" width="120" height="40" as="geometry" />
        </mxCell>
        <mxCell id="Mtf_iVx3d2QCP4QghA2w-20" style="rounded=0;orthogonalLoop=1;jettySize=auto;html=1;" edge="1" parent="1" source="Mtf_iVx3d2QCP4QghA2w-18" target="Mtf_iVx3d2QCP4QghA2w-12">
          <mxGeometry relative="1" as="geometry" />
        </mxCell>
        <mxCell id="Mtf_iVx3d2QCP4QghA2w-18" value="Esperando&lt;div&gt;Ingreso Manual&lt;/div&gt;" style="whiteSpace=wrap;html=1;rounded=0;" vertex="1" parent="1">
          <mxGeometry x="605" y="160" width="120" height="60" as="geometry" />
        </mxCell>
        <mxCell id="Mtf_iVx3d2QCP4QghA2w-21" value="&lt;h5 style=&quot;font-size: 7px;&quot;&gt;&lt;span style=&quot;font-weight: normal;&quot;&gt;Se obtiene Patente&lt;br&gt;//Registrar Horas Permanencia,&lt;br&gt;Imprimir Ticket, Abrir Barrera&lt;/span&gt;&lt;/h5&gt;" style="text;html=1;align=center;verticalAlign=middle;resizable=0;points=[];autosize=1;strokeColor=none;fillColor=none;" vertex="1" parent="1">
          <mxGeometry x="540" y="230" width="120" height="60" as="geometry" />
        </mxCell>
      </root>
    </mxGraphModel>
  </diagram>
</mxfile>
